# xmcd
#
# Track frame offsets:
#	182
#	14280
#	29097
#	43752
#	58760
#	70780
#	84270
#	98755
#	110520
#	122827
#	136165
#	150307
#	163767
#	176512
#	190357
#	204867
#	219165
#	232490
#	246417
#	261200
#
# Disc length: 3649 seconds
#
# Revision: 1
# Processed by: cddbd v1.5.1PL0 Copyright (c) Steve Scherf et al.
# Submitted via: audiograbber 1.83.01
#
DISCID=190e3f14
DTITLE=Various Artist - Chicago Blues CD 2
DYEAR=2000
DGENRE=Blues
TTITLE0=Robert Lockwood - Little Boy Blue
TTITLE1=Dr. Clayton - Cheating and Lying Blues
TTITLE2=St. Louis Jimmy - Going Down Slow
TTITLE3=Lonnie Johnson - He's A Jelly-Roll Baker
TTITLE4=Arthur 'Big Boy' Crudup - Mean Ol' Frisco Blues
TTITLE5=Big Maceo - Chicago Breakdown
TTITLE6=Big Joe Williams - Somebody's Been Worrying'
TTITLE7=Roosevelt Sykes - High Price Blues
TTITLE8=Sonny Boy Williamson - Elevator Woman
TTITLE9=Arthur 'Big Boy' Crudup - That's All Right
TTITLE10=Roosevelt Sykes - Sunny Road
TTITLE11=Sonny Boy Williamson - Better Cut That Out
TTITLE12=Eddie Boyd - I Had To Let Her Go
TTITLE13=Tampa Red - When Things Go Wrong With You (it hurts me too)
TTITLE14=Pete Franklin - Down Behind the Rise
TTITLE15=Jazz Gillum - Take One More Chance With Me
TTITLE16=Walter Davis - Tears Come Rolling Down
TTITLE17=Tampa Red - So Crazy About You Baby
TTITLE18=Tampa Red - Big Stars Falling Blues
TTITLE19=Jazz Gillum - Signifying Woman
EXTD=
EXTT0=
EXTT1=
EXTT2=
EXTT3=
EXTT4=
EXTT5=
EXTT6=
EXTT7=
EXTT8=
EXTT9=
EXTT10=
EXTT11=
EXTT12=
EXTT13=
EXTT14=
EXTT15=
EXTT16=
EXTT17=
EXTT18=
EXTT19=
PLAYORDER=
